HIERARCHY
ROOT reference
{
  OFFSET 0 0 0
  CHANNELS 6 Xposition Yposition Zposition Zrotation Xrotation Yrotation
  JOINT Hips
  {
    OFFSET 350.331 86.7696 215.823
    CHANNELS 3 Zrotation Xrotation Yrotation
    JOINT RightUpLeg
    {
      OFFSET -9.29271 -1.56052 -0.0234997
      CHANNELS 3 Zrotation Xrotation Yrotation
      JOINT RightLeg
      {
        OFFSET -0.0199852 -41.8973 0.0465042
        CHANNELS 3 Zrotation Xrotation Yrotation
        JOINT RightFoot
        {
          OFFSET -0.344404 -43.5008 0.46033
          CHANNELS 3 Zrotation Xrotation Yrotation
          End Site
          {
            OFFSET 0 -7.69 17.5
          }
        }
      }
    }
    JOINT LeftUpLeg
    {
      OFFSET 9.27671 -1.61046 0.00923455
      CHANNELS 3 Zrotation Xrotation Yrotation
      JOINT LeftLeg
      {
        OFFSET 0.0572944 -41.8832 0.025786
        CHANNELS 3 Zrotation Xrotation Yrotation
        JOINT LeftFoot
        {
          OFFSET 0.630082 -40.4663 0.064708
          CHANNELS 3 Zrotation Xrotation Yrotation
          End Site
          {
            OFFSET 0 -7.69 17.5
          }
        }
      }
    }
    JOINT Spine
    {
      OFFSET 0.0336257 14.3009 0.0467062
      CHANNELS 3 Zrotation Xrotation Yrotation
      JOINT Spine1
      {
        OFFSET 0.0295985 9.72711 0.0239471
        CHANNELS 3 Zrotation Xrotation Yrotation
        JOINT Spine2
        {
          OFFSET 0.0515174 10.1206 0.00128176
          CHANNELS 3 Zrotation Xrotation Yrotation
          JOINT Spine3
          {
            OFFSET 0.0546141 9.71668 0.0122483
            CHANNELS 3 Zrotation Xrotation Yrotation
            JOINT Neck
            {
              OFFSET 0.0872189 10.3831 0.0511468
              CHANNELS 3 Zrotation Xrotation Yrotation
              JOINT Head
              {
                OFFSET 0.0544 9.47189 0.0313815
                CHANNELS 3 Zrotation Xrotation Yrotation
                End Site
                {
                  OFFSET 0 15.95 0
                }
              }
            }
            JOINT RightShoulder
            {
              OFFSET -3.15364 6.93551 0.0260198
              CHANNELS 3 Zrotation Xrotation Yrotation
              JOINT RightArm
              {
                OFFSET -12.7567 0.0626665 0.0664987
                CHANNELS 3 Zrotation Xrotation Yrotation
                JOINT RightForeArm
                {
                  OFFSET -26.5087 -0.073346 0.274032
                  CHANNELS 3 Zrotation Xrotation Yrotation
                  JOINT RightHand
                  {
                    OFFSET -26.0005 -0.196673 0.105827
                    CHANNELS 3 Zrotation Xrotation Yrotation
                    JOINT RightHandThumb1
                    {
                      OFFSET -2.48905 0.190105 3.12053
                      CHANNELS 3 Zrotation Xrotation Yrotation
                      JOINT RightHandThumb2
                      {
                        OFFSET -3.68274 0 0
                        CHANNELS 3 Zrotation Xrotation Yrotation
                        JOINT RightHandThumb3
                        {
                          OFFSET -2.55832 0 0
                          CHANNELS 3 Zrotation Xrotation Yrotation
                          End Site
                          {
                            OFFSET -2.194 0 0
                          }
                        }
                      }
                    }
                    JOINT RightInHandIndex
                    {
                      OFFSET -3.22368 0.508421 1.97842
                      CHANNELS 3 Zrotation Xrotation Yrotation
                      JOINT RightHandIndex1
                      {
                        OFFSET -5.21684 -0.091368 0.999158
                        CHANNELS 3 Zrotation Xrotation Yrotation
                        JOINT RightHandIndex2
                        {
                          OFFSET -3.61937 0 0
                          CHANNELS 3 Zrotation Xrotation Yrotation
                          JOINT RightHandIndex3
                          {
                            OFFSET -2.0521 0 0
                            CHANNELS 3 Zrotation Xrotation Yrotation
                            End Site
                            {
                              OFFSET -1.805 0 0
                            }
                          }
                        }
                      }
                    }
                    JOINT RightInHandMiddle
                    {
                      OFFSET -3.38211 0.517263 0.756737
                      CHANNELS 3 Zrotation Xrotation Yrotation
                      JOINT RightHandMiddle1
                      {
                        OFFSET -5.17411 -0.084 0.313895
                        CHANNELS 3 Zrotation Xrotation Yrotation
                        JOINT RightHandMiddle2
                        {
                          OFFSET -3.94947 0 0
                          CHANNELS 3 Zrotation Xrotation Yrotation
                          JOINT RightHandMiddle3
                          {
                            OFFSET -2.47579 0 0
                            CHANNELS 3 Zrotation Xrotation Yrotation
                            End Site
                            {
                              OFFSET -1.975 0 0
                            }
                          }
                        }
                      }
                    }
                    JOINT RightInHandRing
                    {
                      OFFSET -3.36516 0.537895 -0.128947
                      CHANNELS 3 Zrotation Xrotation Yrotation
                      JOINT RightHandRing1
                      {
                        OFFSET -4.63474 -0.022105 -0.478947
                        CHANNELS 3 Zrotation Xrotation Yrotation
                        JOINT RightHandRing2
                        {
                          OFFSET -3.44238 0 0
                          CHANNELS 3 Zrotation Xrotation Yrotation
                          JOINT RightHandRing3
                          {
                            OFFSET -2.3881 0 0
                            CHANNELS 3 Zrotation Xrotation Yrotation
                            End Site
                            {
                              OFFSET -1.857 0 0
                            }
                          }
                        }
                      }
                    }
                    JOINT RightInHandPinky
                    {
                      OFFSET -3.16105 0.469368 -1.20179
                      CHANNELS 3 Zrotation Xrotation Yrotation
                      JOINT RightHandPinky1
                      {
                        OFFSET -4.14105 -0.022105 -1.09053
                        CHANNELS 3 Zrotation Xrotation Yrotation
                        JOINT RightHandPinky2
                        {
                          OFFSET -2.75653 0 0
                          CHANNELS 3 Zrotation Xrotation Yrotation
                          JOINT RightHandPinky3
                          {
                            OFFSET -1.74189 0 0
                            CHANNELS 3 Zrotation Xrotation Yrotation
                            End Site
                            {
                              OFFSET -1.645 0 0
                            }
                          }
                        }
                      }
                    }
                  }
                }
              }
            }
            JOINT LeftShoulder
            {
              OFFSET 3.27252 6.91581 -0.0198585
              CHANNELS 3 Zrotation Xrotation Yrotation
              JOINT LeftArm
              {
                OFFSET 12.8319 -0.0466028 -0.0574599
                CHANNELS 3 Zrotation Xrotation Yrotation
                JOINT LeftForeArm
                {
                  OFFSET 26.4942 -0.039105 -0.0936
                  CHANNELS 3 Zrotation Xrotation Yrotation
                  JOINT LeftHand
                  {
                    OFFSET 26.0008 0.022674 -0.016655
                    CHANNELS 3 Zrotation Xrotation Yrotation
                    JOINT LeftHandThumb1
                    {
                      OFFSET 2.48905 0.190105 3.12053
                      CHANNELS 3 Zrotation Xrotation Yrotation
                      JOINT LeftHandThumb2
                      {
                        OFFSET 3.68274 0 0
                        CHANNELS 3 Zrotation Xrotation Yrotation
                        JOINT LeftHandThumb3
                        {
                          OFFSET 2.55832 0 0
                          CHANNELS 3 Zrotation Xrotation Yrotation
                          End Site
                          {
                            OFFSET 2.194 0 0
                          }
                        }
                      }
                    }
                    JOINT LeftInHandIndex
                    {
                      OFFSET 3.22368 0.508421 1.97842
                      CHANNELS 3 Zrotation Xrotation Yrotation
                      JOINT LeftHandIndex1
                      {
                        OFFSET 5.21684 -0.091368 0.999158
                        CHANNELS 3 Zrotation Xrotation Yrotation
                        JOINT LeftHandIndex2
                        {
                          OFFSET 3.61937 0 0
                          CHANNELS 3 Zrotation Xrotation Yrotation
                          JOINT LeftHandIndex3
                          {
                            OFFSET 2.0521 0 0
                            CHANNELS 3 Zrotation Xrotation Yrotation
                            End Site
                            {
                              OFFSET 1.805 0 0
                            }
                          }
                        }
                      }
                    }
                    JOINT LeftInHandMiddle
                    {
                      OFFSET 3.38211 0.517263 0.756737
                      CHANNELS 3 Zrotation Xrotation Yrotation
                      JOINT LeftHandMiddle1
                      {
                        OFFSET 5.17411 -0.084 0.313895
                        CHANNELS 3 Zrotation Xrotation Yrotation
                        JOINT LeftHandMiddle2
                        {
                          OFFSET 3.94947 0 0
                          CHANNELS 3 Zrotation Xrotation Yrotation
                          JOINT LeftHandMiddle3
                          {
                            OFFSET 2.47579 0 0
                            CHANNELS 3 Zrotation Xrotation Yrotation
                            End Site
                            {
                              OFFSET 1.975 0 0
                            }
                          }
                        }
                      }
                    }
                    JOINT LeftInHandRing
                    {
                      OFFSET 3.36516 0.537895 -0.128947
                      CHANNELS 3 Zrotation Xrotation Yrotation
                      JOINT LeftHandRing1
                      {
                        OFFSET 4.63474 -0.022105 -0.478947
                        CHANNELS 3 Zrotation Xrotation Yrotation
                        JOINT LeftHandRing2
                        {
                          OFFSET 3.44238 0 0
                          CHANNELS 3 Zrotation Xrotation Yrotation
                          JOINT LeftHandRing3
                          {
                            OFFSET 2.3881 0 0
                            CHANNELS 3 Zrotation Xrotation Yrotation
                            End Site
                            {
                              OFFSET 1.857 0 0
                            }
                          }
                        }
                      }
                    }
                    JOINT LeftInHandPinky
                    {
                      OFFSET 3.16105 0.469368 -1.20179
                      CHANNELS 3 Zrotation Xrotation Yrotation
                      JOINT LeftHandPinky1
                      {
                        OFFSET 4.14105 -0.022105 -1.09053
                        CHANNELS 3 Zrotation Xrotation Yrotation
                        JOINT LeftHandPinky2
                        {
                          OFFSET 2.75653 0 0
                          CHANNELS 3 Zrotation Xrotation Yrotation
                          JOINT LeftHandPinky3
                          {
                            OFFSET 1.74189 0 0
                            CHANNELS 3 Zrotation Xrotation Yrotation
                            End Site
                            {
                              OFFSET 1.645 0 0
                            }
                          }
                        }
                      }
                    }
                  }
                }
              }
            }
          }
        }
      }
    }
  }
}
MOTION
Frames: 2
Frame Time: 0.00833333
4.500000000000000000e+02 0.000000000000000000e+00 0.000000000000000000e+00 0.000000000000000000e+00 0.000000000000000000e+00 0.000000000000000000e+00 8.375414158991578706e-02 7.677934865766719574e-02 4.253953222517892208e-01 -2.587913448565448138e-01 -2.631088664390039411e-01 -5.459870251142903141e-01 9.610132757229775113e-02 -7.621878960861480645e-02 -2.143431338643433937e-01 -1.797449783154501379e-01 1.368967273027780762e-01 2.002538073474185998e-01 4.803172015849114206e-03 -3.480244149412584642e-01 -4.077915680320369218e-01 -1.310397172358892803e-01 -1.740260195332319487e-02 1.626604780018241492e-01 -3.585522944324079364e-02 -1.693522749614085818e-02 -5.007047500132215390e-02 2.613249013220189307e-02 -1.668043521235633084e-02 -3.009996975475697778e-01 9.064593569125653852e-03 -7.925916878147620023e-04 -7.695497884678927092e-02 1.519758748138363286e-02 3.051774985467639936e-03 -1.279004122204585314e-01 -2.006202995335572108e-03 -2.903865068717856324e-02 8.926700861494262298e-03 5.838160444445118953e-03 -2.038312190512251917e-02 3.851207864856577290e-01 8.497661261469609956e-03 1.449849543442458324e-02 -2.009094444970271343e-01 -1.009711361820412462e-01 4.443995913211185034e-02 -2.419756441732253890e-02 -1.309353024074774996e-01 6.523189045447123913e-02 -4.658122480529798271e-01 5.280968226110848568e-02 5.007914751629829464e-01 -3.462828350569317759e-03 3.178198841650242690e-01 -5.689089769363421256e-01 1.690854907228362541e-02 0.000000000000000000e+00 0.000000000000000000e+00 0.000000000000000000e+00 4.295004290776602789e-17 4.202473462070150282e-17 0.000000000000000000e+00 3.374207279226576071e-15 1.111521522211414650e-15 0.000000000000000000e+00 2.991700902643492926e-15 -1.299544048443157633e-15 -2.115222573877642134e-17 0.000000000000000000e+00 0.000000000000000000e+00 0.000000000000000000e+00 0.000000000000000000e+00 1.563139885322950795e-15 -1.070528628444542717e-15 0.000000000000000000e+00 -1.613426438226914340e-15 4.768444199118448596e-16 2.991700902643492926e-15 -1.299544048443157633e-15 -2.115222573877642134e-17 0.000000000000000000e+00 -1.069909989874150127e-15 -7.505633684293257713e-16 0.000000000000000000e+00 5.068056848064835783e-16 3.944996975277390179e-16 0.000000000000000000e+00 -3.589129289726552151e-16 4.527739017186215850e-16 2.991700902643492926e-15 -1.299544048443157633e-15 -2.115222573877642134e-17 0.000000000000000000e+00 0.000000000000000000e+00 0.000000000000000000e+00 0.000000000000000000e+00 -2.189102272317614569e-16 1.122664948129994851e-15 0.000000000000000000e+00 -7.700503397927531228e-16 -1.072616489079167501e-15 2.991700902643492926e-15 -1.299544048443157633e-15 -2.115222573877642134e-17 0.000000000000000000e+00 0.000000000000000000e+00 0.000000000000000000e+00 0.000000000000000000e+00 7.778435699848767299e-16 -8.315575814038244141e-16 0.000000000000000000e+00 7.845382025412783079e-17 -2.442211350271581590e-15 1.454620174710087588e-01 5.164148545883570640e-02 5.277213270090551633e-01 9.314173207328475812e-03 -4.035590853089430358e-02 -2.442802396495831474e-01 -6.930127725476377121e-01 7.548958927968900390e-02 -1.174790931423050244e+00 8.034741042523267651e-02 -4.041844391716307300e-02 1.771092089429087968e-01 0.000000000000000000e+00 0.000000000000000000e+00 0.000000000000000000e+00 -1.441350238351777097e-15 -2.134719662197270454e-15 0.000000000000000000e+00 -1.697258660851628336e-15 1.187790896623083389e-16 0.000000000000000000e+00 -6.771362011941355213e-16 1.484347403622950820e-15 -4.065894483988375492e-16 0.000000000000000000e+00 0.000000000000000000e+00 0.000000000000000000e+00 0.000000000000000000e+00 9.446052518150232475e-16 1.494998533347277538e-15 0.000000000000000000e+00 -5.718148445391577460e-16 1.627208401534859606e-15 -6.771362011941355213e-16 1.484347403622950820e-15 -4.065894483988375492e-16 0.000000000000000000e+00 3.383961597687942734e-16 -6.171459003430340234e-16 0.000000000000000000e+00 2.202430153680124621e-15 7.706716883072110421e-16 0.000000000000000000e+00 -5.661944905876365067e-16 1.943209049111515477e-15 -6.771362011941355213e-16 1.484347403622950820e-15 -4.065894483988375492e-16 0.000000000000000000e+00 0.000000000000000000e+00 0.000000000000000000e+00 0.000000000000000000e+00 -1.775505837727416660e-15 1.692501134200933387e-15 0.000000000000000000e+00 -2.519952205641276718e-15 2.046614597677447063e-15 -6.771362011941355213e-16 1.484347403622950820e-15 -4.065894483988375492e-16 0.000000000000000000e+00 0.000000000000000000e+00 0.000000000000000000e+00 0.000000000000000000e+00 -5.384537651503181511e-16 6.365798556548951742e-16 0.000000000000000000e+00 -2.711417899001684960e-16 1.525105509101833212e-15
4.500000000000000000e+02 0.000000000000000000e+00 0.000000000000000000e+00 0.000000000000000000e+00 0.000000000000000000e+00 0.000000000000000000e+00 1.031459396151619828e-01 9.519751692631825413e-02 4.774973354363555300e-01 -2.741581016535449278e-01 -2.986819094272374353e-01 -5.425506105806303658e-01 1.076876565866887736e-01 -7.449721033032889739e-02 -2.818206817800906205e-01 -1.746039354555974921e-01 1.465221797508837742e-01 1.982442384534858770e-01 1.518441365512765082e-02 -4.040788126094073673e-01 -4.395846324751642720e-01 -1.256854099871478059e-01 5.698340780564314229e-03 1.635523998749445207e-01 -1.827439490230281169e-02 -1.623091400756059011e-02 -5.615402983904636824e-02 2.690731072750977490e-02 -2.187297708674691352e-02 -3.501190054439963784e-01 9.572634398735350297e-03 -2.595184753536435452e-03 -8.903521843453429674e-02 1.564188692814221307e-02 6.144807426671883115e-04 -1.477134960964311683e-01 -1.551543468020384880e-05 -2.656513036915595857e-02 6.871505749469927933e-03 6.253861776635107235e-03 9.646071048910772119e-03 1.742229142967099964e-01 1.792890063484421648e-02 -2.258100189773161806e-02 -1.094026068357436543e-01 -8.563535090030975627e-02 4.844530440926402004e-02 -1.460564692774258752e-02 -1.981111867231663548e-02 2.005901335139044506e-01 -3.367945295430553321e-01 -8.093547896728425783e-02 3.631232209886713913e-01 3.200602232736662889e-02 3.246497966829673953e-01 -7.989072471133419340e-01 -7.664139352332338152e-03 0.000000000000000000e+00 0.000000000000000000e+00 0.000000000000000000e+00 1.071191599087534517e-15 8.377805257177307785e-16 0.000000000000000000e+00 2.708627027519960685e-15 4.789530962264803657e-16 0.000000000000000000e+00 3.268038395751255553e-15 -8.901780684469288637e-16 1.439473635636619413e-16 0.000000000000000000e+00 0.000000000000000000e+00 0.000000000000000000e+00 0.000000000000000000e+00 1.119063902299891402e-15 -1.236383552420423200e-15 0.000000000000000000e+00 -1.376590889640471109e-15 4.704501309250851127e-16 3.268038395751255553e-15 -8.901780684469288637e-16 1.439473635636619413e-16 0.000000000000000000e+00 -1.003005766957658202e-15 -7.352772850070993382e-16 0.000000000000000000e+00 3.461366168227532075e-16 2.261515163096849793e-16 0.000000000000000000e+00 -3.808696619997000021e-16 1.190880855215567218e-16 3.268038395751255553e-15 -8.901780684469288637e-16 1.439473635636619413e-16 0.000000000000000000e+00 0.000000000000000000e+00 0.000000000000000000e+00 0.000000000000000000e+00 -2.648378697526077663e-16 1.048295960233945608e-15 0.000000000000000000e+00 -6.732118987782541390e-16 -6.329339080112152931e-16 3.268038395751255553e-15 -8.901780684469288637e-16 1.439473635636619413e-16 0.000000000000000000e+00 0.000000000000000000e+00 0.000000000000000000e+00 0.000000000000000000e+00 8.803023477248228905e-16 -9.594523688127643454e-16 0.000000000000000000e+00 -1.235857463024219807e-16 -2.740398285721636577e-15 1.522854333686155803e-01 5.661604623083065640e-02 4.820207853649203233e-01 3.597826171523547251e-02 -8.335577124026846696e-02 -2.472269808745307662e-01 -7.425552084420988797e-01 9.313161398909233779e-02 -1.160940886729998178e+00 8.204249992387045720e-02 -7.535102505785823412e-02 1.995395780890490689e-01 0.000000000000000000e+00 0.000000000000000000e+00 0.000000000000000000e+00 -1.344374639488395249e-15 -1.218240683796118708e-15 0.000000000000000000e+00 -1.317705920017019884e-15 -3.665101584094332507e-16 0.000000000000000000e+00 -6.240802783315442217e-16 1.478062205520011782e-15 -7.703807742703952351e-16 0.000000000000000000e+00 0.000000000000000000e+00 0.000000000000000000e+00 0.000000000000000000e+00 6.799624254397272069e-16 1.170572438306401388e-15 0.000000000000000000e+00 -2.140300658725347771e-16 1.719914620939539582e-15 -6.240802783315442217e-16 1.478062205520011782e-15 -7.703807742703952351e-16 0.000000000000000000e+00 5.156913447232905290e-16 -7.011812725805467948e-16 0.000000000000000000e+00 2.149312589062924890e-15 6.853640199535587960e-16 0.000000000000000000e+00 -3.400107102313888753e-16 1.429301730889984844e-15 -6.240802783315442217e-16 1.478062205520011782e-15 -7.703807742703952351e-16 0.000000000000000000e+00 0.000000000000000000e+00 0.000000000000000000e+00 0.000000000000000000e+00 -1.582104973543239067e-15 1.509211446632155047e-15 0.000000000000000000e+00 -2.329413060416283834e-15 2.144653968886330278e-15 -6.240802783315442217e-16 1.478062205520011782e-15 -7.703807742703952351e-16 0.000000000000000000e+00 0.000000000000000000e+00 0.000000000000000000e+00 0.000000000000000000e+00 -5.220314062042547377e-17 5.922908295654195395e-16 0.000000000000000000e+00 -6.425016554818623576e-16 1.623310135482881402e-15
